HIERARCHY
ROOT Hips
{
	OFFSET -3.958830 18.904000 13.208200
	CHANNELS 6 Xposition Yposition Zposition Zrotation Yrotation Xrotation 
	JOINT LHipJoint
	{
		OFFSET 0.000000 0.000000 0.000000
		CHANNELS 3 Zrotation Yrotation Xrotation
		JOINT LeftUpLeg
		{
			OFFSET 1.800000 -1.400000 0.085000
			CHANNELS 3 Zrotation Yrotation Xrotation
			JOINT LeftLeg
			{
				OFFSET 2.215000 -6.000000 0.000000
				CHANNELS 3 Zrotation Yrotation Xrotation
				JOINT LeftFoot
				{
					OFFSET 2.500000 -6.900000 0.000000
					CHANNELS 3 Zrotation Yrotation Xrotation
					JOINT LeftToeBase
					{
						OFFSET 0.200000 -0.500000 1.950000
						CHANNELS 3 Zrotation Yrotation Xrotation
						End Site
						{
							OFFSET 0.000000 0.000000 0.000000
						}
					}
				}
			}
		}
	}
	JOINT RHipJoint
	{
		OFFSET 0.000000 0.000000 0.000000
		CHANNELS 3 Zrotation Yrotation Xrotation
		JOINT RightUpLeg
		{
			OFFSET -1.800000 -1.400000 0.085000
			CHANNELS 3 Zrotation Yrotation Xrotation
			JOINT RightLeg
			{
				OFFSET -2.215000 -6.000000 0.000000
				CHANNELS 3 Zrotation Yrotation Xrotation
				JOINT RightFoot
				{
					OFFSET -2.500000 -6.900000 0.000000
					CHANNELS 3 Zrotation Yrotation Xrotation
					JOINT RightToeBase
					{
						OFFSET -0.200000 -0.500000 1.950000
						CHANNELS 3 Zrotation Yrotation Xrotation
						End Site
						{
							OFFSET 0.000000 0.000000 0.000000
						}
					}
				}
			}
		}
	}
	JOINT LowerBack
	{
		OFFSET 0.000000 0.000000 0.000000
		CHANNELS 3 Zrotation Yrotation Xrotation
		JOINT Spine
		{
			OFFSET -0.087000 1.940000 -0.288900
			CHANNELS 3 Zrotation Yrotation Xrotation
			JOINT Spine1
			{
				OFFSET 0.000000 1.950000 0.060000
				CHANNELS 3 Zrotation Yrotation Xrotation
				JOINT Neck
				{
					OFFSET 0.000000 0.000000 0.000000
					CHANNELS 3 Zrotation Yrotation Xrotation
					JOINT Neck1
					{
						OFFSET 0.000000 1.600000 0.340000
						CHANNELS 3 Zrotation Yrotation Xrotation
						JOINT Head
						{
							OFFSET 0.000000 1.667000 -0.240000
							CHANNELS 3 Zrotation Yrotation Xrotation
							End Site
							{
								OFFSET 0.000000 0.000000 0.000000
							}
						}
					}
				}
				JOINT LeftShoulder
				{
					OFFSET 0.000000 0.000000 0.000000
					CHANNELS 3 Zrotation Yrotation Xrotation
					JOINT LeftArm
					{
						OFFSET 2.700000 1.550000 -0.730000
						CHANNELS 3 Zrotation Yrotation Xrotation
						JOINT LeftForeArm
						{
							OFFSET 5.450000 0.000000 0.000000
							CHANNELS 3 Zrotation Yrotation Xrotation
							JOINT LeftHand
							{
								OFFSET 3.450000 0.000000 0.000000
								CHANNELS 3 Zrotation Yrotation Xrotation
								JOINT LeftHandIndex1
								{
									OFFSET 0.750000 0.000000 0.000000
									CHANNELS 3 Zrotation Yrotation Xrotation
									End Site
									{
										OFFSET 0.000000 0.000000 0.000000
									}
								}
							}
						}
					}
				}
				JOINT RightShoulder
				{
					OFFSET 0.000000 0.000000 0.000000
					CHANNELS 3 Zrotation Yrotation Xrotation
					JOINT RightArm
					{
						OFFSET -2.700000 1.550000 -0.730000
						CHANNELS 3 Zrotation Yrotation Xrotation
						JOINT RightForeArm
						{
							OFFSET -5.450000 0.000000 0.000000
							CHANNELS 3 Zrotation Yrotation Xrotation
							JOINT RightHand
							{
								OFFSET -3.450000 0.000000 0.000000
								CHANNELS 3 Zrotation Yrotation Xrotation
								JOINT RightHandIndex1
								{
									OFFSET -0.750000 0.000000 0.000000
									CHANNELS 3 Zrotation Yrotation Xrotation
									End Site
									{
										OFFSET 0.000000 0.000000 0.000000
									}
								}
							}
						}
					}
				}
			}
		}
	}
}
MOTION
Frames: 4
Frame Time: 0.016667
-3.395940 16.095220 -1.071090 -16.301731 -74.116884 -1.954368 -15.215861 13.474758 2.871590 9.732870 1.165749 -31.629116 13.124632 4.351113 37.962858 -0.064074 5.875485 2.381163 0.875230 0.586820 0.702780 17.992560 -12.027780 2.765101 -10.075523 10.332629 -6.069248 -3.327697 -8.414696 67.389125 -1.919456 -10.351529 1.050039 0.260180 0.095910 0.309590 -5.571974 0.261535 -7.113091 15.285371 5.408334 15.875190 -11.413418 8.142167 1.241220 1.474449 -7.893253 -6.773990 -17.958771 23.558642 44.104966 4.410750 16.896110 -4.214560 -1.866938 20.494560 -0.778255 -24.020001 24.910061 -7.341561 11.221651 -5.093344 -0.744390 -3.783085 2.949717 0.569290 0.015730 0.245660 0.421420 -4.083934 -11.724825 5.567991 14.370398 -24.302899 -6.149503 -10.044812 22.343119 -1.003574 2.356452 -1.857855 -0.017800 0.042080 -0.489000 -0.125290 
-3.436320 16.034620 -1.031120 -15.503892 -76.507564 -1.391897 -15.281249 13.501956 3.096321 10.576278 0.896450 -32.692628 11.766589 5.300869 40.383620 0.040593 6.473999 2.222901 0.719050 0.402600 0.579840 17.942701 -11.979360 2.524648 -11.062782 9.595921 -6.814098 -5.588455 -6.803232 65.831239 -1.742532 -10.030605 1.187383 0.162320 0.233060 0.307310 -5.332640 -0.110616 -7.153061 14.482030 5.167665 15.214972 -10.516226 7.549584 -0.516331 1.862890 -7.695776 -6.515797 -17.413686 23.790518 43.695345 3.980040 17.725370 0.078730 -1.387889 21.739637 -1.382308 -26.964351 25.203401 -7.363506 14.356949 1.284611 0.077957 -4.042948 2.751968 0.515390 0.114950 0.145270 0.420010 -5.124133 -12.947480 5.716803 16.863267 -22.647312 -6.150629 -11.341656 15.677511 -0.911265 2.484492 -1.677840 -0.075530 0.061780 -0.408690 -0.108570 
-3.443520 16.022830 -1.042410 -16.662429 -79.200561 0.392706 -15.305275 13.592509 3.277817 12.647322 1.068748 -32.671603 9.157119 6.614174 40.874819 0.136180 6.684753 2.108237 0.740360 0.421230 0.581960 17.902104 -11.968472 2.380419 -10.715820 8.919510 -6.867159 -8.528656 -4.524234 64.357577 -1.699280 -9.640943 1.291198 0.120200 0.177190 0.350790 -5.146487 -0.495224 -7.261780 14.319826 4.189382 16.699579 -10.640996 6.622028 -3.135457 2.139317 -8.111545 -6.941444 -19.069871 25.406223 43.976425 4.577590 18.564660 0.691770 -2.379095 22.081536 -1.404216 -28.785901 28.158547 -8.191157 14.283780 2.251999 0.314434 -3.985794 2.799761 0.531000 0.067480 0.202380 0.426500 -4.418663 -13.244581 5.544415 18.896728 -23.108296 -6.667620 -11.293977 13.084596 -0.751502 2.591384 -1.601352 -0.003470 -0.015560 -0.429730 -0.087310 
-3.406780 16.048000 -1.093640 -19.354634 -83.408990 4.047755 -15.348427 13.603702 3.312899 15.429556 1.751068 -31.138951 4.907354 8.406218 38.660509 0.155820 6.590513 2.083024 0.835880 0.533350 0.654750 17.871014 -11.964798 2.292907 -10.010083 8.745708 -8.194396 -12.499854 -1.141653 62.372058 -1.670290 -9.174877 1.400100 0.145260 0.064780 0.371560 -5.033045 -0.710237 -7.272714 13.916718 4.189420 17.344056 -10.103790 6.683665 -3.804122 2.168160 -8.608813 -7.063876 -21.569316 26.750179 43.952433 4.220620 19.075720 -0.594920 -3.967844 22.126022 -1.675770 -32.620741 28.237574 -9.788570 13.590336 -0.142761 -0.033572 -3.837410 2.905709 0.552460 -0.011230 0.290130 0.440380 -2.868545 -13.290414 5.276120 22.162919 -26.277707 -8.524100 -10.704960 16.726040 -0.915474 2.573299 -1.664849 0.073660 -0.081350 -0.505060 -0.077680 
